<?xml version="1.0" encoding="UTF-8" standalone="no"?>
<!-- Created with Inkscape (http://www.inkscape.org/) -->

<svg
   width="30.48mm"
   height="128.5mm"
   viewBox="0 0 30.480002 128.50002"
   version="1.1"
   id="svg8"
   inkscape:version="1.2.2 (732a01da63, 2022-12-09)"
   sodipodi:docname="MyFIrstModule.svg"
   xml:space="preserve"
   xmlns:inkscape="http://www.inkscape.org/namespaces/inkscape"
   xmlns:sodipodi="http://sodipodi.sourceforge.net/DTD/sodipodi-0.dtd"
   xmlns:xlink="http://www.w3.org/1999/xlink"
   xmlns="http://www.w3.org/2000/svg"
   xmlns:svg="http://www.w3.org/2000/svg"
   xmlns:rdf="http://www.w3.org/1999/02/22-rdf-syntax-ns#"
   xmlns:cc="http://creativecommons.org/ns#"
   xmlns:dc="http://purl.org/dc/elements/1.1/"><defs
     id="defs2"><rect
       x="29.7995"
       y="201.02036"
       width="57.578695"
       height="23.233508"
       id="rect265" /><linearGradient
       inkscape:collect="always"
       id="linearGradient3043"><stop
         style="stop-color:#ff0bd8;stop-opacity:1;"
         offset="0.00321543"
         id="stop3039" /><stop
         style="stop-color:#d601f6;stop-opacity:1;"
         offset="0.36977491"
         id="stop969" /><stop
         style="stop-color:#b700ff;stop-opacity:1;"
         offset="0.53697747"
         id="stop3047" /><stop
         style="stop-color:#ff0000;stop-opacity:1;"
         offset="1"
         id="stop3041" /></linearGradient><rect
       x="7.0710678"
       y="16.162441"
       width="100.0051"
       height="39.395949"
       id="rect335" /><radialGradient
       inkscape:collect="always"
       xlink:href="#linearGradient3043"
       id="radialGradient3045"
       cx="15.100727"
       cy="64.345135"
       fx="15.100727"
       fy="64.345135"
       r="15.099384"
       gradientTransform="matrix(1,0,0,4.2525018,0,-209.28267)"
       gradientUnits="userSpaceOnUse" /></defs><sodipodi:namedview
     id="base"
     pagecolor="#ffffff"
     bordercolor="#666666"
     borderopacity="1.0"
     inkscape:pageopacity="0.0"
     inkscape:pageshadow="2"
     inkscape:zoom="1.979899"
     inkscape:cx="-12.879445"
     inkscape:cy="239.40615"
     inkscape:document-units="mm"
     inkscape:current-layer="layer3"
     showgrid="false"
     units="mm"
     inkscape:snap-bbox="true"
     inkscape:snap-page="true"
     inkscape:bbox-nodes="false"
     inkscape:snap-bbox-edge-midpoints="false"
     inkscape:window-width="2560"
     inkscape:window-height="1417"
     inkscape:window-x="-8"
     inkscape:window-y="-8"
     inkscape:window-maximized="1"
     inkscape:snap-bbox-midpoints="true"
     inkscape:snap-nodes="false"
     inkscape:showpageshadow="2"
     inkscape:pagecheckerboard="0"
     inkscape:deskcolor="#d1d1d1" /><metadata
     id="metadata5"><rdf:RDF><cc:Work
         rdf:about=""><dc:format>image/svg+xml</dc:format><dc:type
           rdf:resource="http://purl.org/dc/dcmitype/StillImage" /></cc:Work></rdf:RDF></metadata><g
     inkscape:label="Layer 1"
     inkscape:groupmode="layer"
     id="layer1"
     transform="translate(0,-168.49998)"
     style="display:inline"><rect
       style="display:inline;opacity:1;vector-effect:none;fill:#e6e6e6;fill-opacity:1;fill-rule:evenodd;stroke:#9c0000;stroke-width:0.649358;stroke-linecap:butt;stroke-linejoin:miter;stroke-miterlimit:4;stroke-dasharray:none;stroke-dashoffset:0;stroke-opacity:1;paint-order:normal"
       id="rect420"
       width="30.48"
       height="128.5"
       x="5.9211732e-17"
       y="168.49997" /><g
       inkscape:groupmode="layer"
       id="layer3"
       inkscape:label="panelGradient"
       transform="translate(0,168.49998)"><rect
         style="opacity:1;fill:url(#radialGradient3045);fill-opacity:1;stroke:#9c0000;stroke-width:0.264583;stroke-opacity:1"
         id="rect3014"
         width="29.934185"
         height="128.15573"
         x="0.13363476"
         y="0.26726952"
         inkscape:label="rect3014" /></g><g
       aria-label="1V/oct"
       style="font-style:normal;font-variant:normal;font-weight:300;font-stretch:normal;font-size:4.93889px;line-height:6.61458px;font-family:'Gotham Rounded';-inkscape-font-specification:'Gotham Rounded Light';font-variant-ligatures:normal;font-variant-caps:normal;font-variant-numeric:normal;font-feature-settings:normal;text-align:center;letter-spacing:0px;word-spacing:0px;writing-mode:lr-tb;text-anchor:middle;display:inline;fill:#000000;fill-opacity:1;stroke:none;stroke-width:0.264583px;stroke-linecap:butt;stroke-linejoin:miter;stroke-opacity:1"
       id="text4948"
       transform="translate(0,5.2916669)"><path
         d="m 9.6908279,252.06539 c 0,0.0593 0.0508,0.11007 0.1100667,0.11007 0.059267,0 0.1058333,-0.0508 0.1058333,-0.11007 v -2.794 c 0,-0.055 -0.0381,-0.10583 -0.1058333,-0.10583 h -0.00847 c -0.046567,0 -0.0889,0.0127 -0.1354666,0.0296 l -0.5164667,0.1905 c -0.046567,0.0169 -0.080433,0.0423 -0.080433,0.0931 0,0.0508 0.042333,0.0931 0.093133,0.0931 0.016933,0 0.033867,-0.004 0.055033,-0.0127 l 0.4826,-0.1651 z"
         style="font-style:normal;font-variant:normal;font-weight:300;font-stretch:normal;font-size:4.23333px;font-family:'Gotham Rounded';-inkscape-font-specification:'Gotham Rounded Light';text-align:center;text-anchor:middle;stroke-width:0.264583px"
         id="path5057"
         inkscape:connector-curvature="0" /><path
         d="m 11.938463,252.18816 h 0.0085 c 0.06773,0 0.105833,-0.0381 0.131233,-0.0974 l 1.210733,-2.7686 c 0.0085,-0.0169 0.0085,-0.0254 0.0085,-0.0423 0,-0.0508 -0.04657,-0.1016 -0.105833,-0.1016 -0.0508,0 -0.0889,0.0381 -0.110067,0.0847 l -1.134533,2.65854 -1.1303,-2.6543 c -0.02117,-0.0508 -0.05927,-0.0889 -0.1143,-0.0889 -0.0635,0 -0.110067,0.055 -0.110067,0.10583 0,0.0212 0,0.0296 0.0085,0.0466 l 1.2065,2.76013 c 0.0254,0.0593 0.0635,0.0974 0.131233,0.0974 z"
         style="font-style:normal;font-variant:normal;font-weight:300;font-stretch:normal;font-size:4.23333px;font-family:'Gotham Rounded';-inkscape-font-specification:'Gotham Rounded Light';text-align:center;text-anchor:middle;stroke-width:0.264583px"
         id="path5059"
         inkscape:connector-curvature="0" /><path
         d="m 13.000435,252.62842 c 0,0.0508 0.0381,0.0889 0.0889,0.0889 0.04233,0 0.07197,-0.0254 0.0889,-0.0593 l 1.913466,-3.75074 c 0.0085,-0.0169 0.0127,-0.0381 0.0127,-0.055 0,-0.0508 -0.0381,-0.0889 -0.0889,-0.0889 -0.04233,0 -0.07197,0.0254 -0.0889,0.0593 l -1.913466,3.75073 c -0.0085,0.0169 -0.0127,0.0381 -0.0127,0.055 z"
         style="font-style:normal;font-variant:normal;font-weight:300;font-stretch:normal;font-size:4.23333px;font-family:'Gotham Rounded';-inkscape-font-specification:'Gotham Rounded Light';text-align:center;text-anchor:middle;stroke-width:0.264583px"
         id="path5061"
         inkscape:connector-curvature="0" /><path
         d="m 16.153937,252.20932 c 0.643467,0 1.113367,-0.52493 1.113367,-1.1303 v -0.008 c 0,-0.60537 -0.465667,-1.12184 -1.1049,-1.12184 -0.643467,0 -1.113367,0.52494 -1.113367,1.1303 v 0.008 c 0,0.60537 0.465667,1.12183 1.1049,1.12183 z m 0.0085,-0.19473 c -0.499534,0 -0.889,-0.41487 -0.889,-0.93557 v -0.008 c 0,-0.508 0.3683,-0.9271 0.880533,-0.9271 0.499533,0 0.889,0.41486 0.889,0.93556 v 0.008 c 0,0.508 -0.3683,0.9271 -0.880533,0.9271 z"
         style="font-style:normal;font-variant:normal;font-weight:300;font-stretch:normal;font-size:4.23333px;font-family:'Gotham Rounded';-inkscape-font-specification:'Gotham Rounded Light';text-align:center;text-anchor:middle;stroke-width:0.264583px"
         id="path5063"
         inkscape:connector-curvature="0" /><path
         d="m 18.861683,252.20932 c 0.3683,0 0.618066,-0.1524 0.833966,-0.37253 0.01693,-0.0169 0.0254,-0.0423 0.0254,-0.0635 0,-0.0508 -0.0508,-0.1016 -0.1016,-0.1016 -0.02963,0 -0.0508,0.0169 -0.06773,0.0339 -0.173567,0.17356 -0.397933,0.30903 -0.677333,0.30903 -0.4953,0 -0.889,-0.41487 -0.889,-0.93557 v -0.008 c 0,-0.51647 0.381,-0.9271 0.872066,-0.9271 0.2921,0 0.4953,0.1397 0.668867,0.3048 0.01693,0.0169 0.04657,0.0254 0.07197,0.0254 0.05927,0 0.105834,-0.0466 0.105834,-0.10584 0,-0.0296 -0.0127,-0.0593 -0.02963,-0.0762 -0.194733,-0.18203 -0.440266,-0.3429 -0.812799,-0.3429 -0.618067,0 -1.100667,0.52494 -1.100667,1.1303 v 0.008 c 0,0.60537 0.478367,1.12183 1.100667,1.12183 z"
         style="font-style:normal;font-variant:normal;font-weight:300;font-stretch:normal;font-size:4.23333px;font-family:'Gotham Rounded';-inkscape-font-specification:'Gotham Rounded Light';text-align:center;text-anchor:middle;stroke-width:0.264583px"
         id="path5065"
         inkscape:connector-curvature="0" /><path
         d="m 21.043172,252.19662 c 0.122767,0 0.220133,-0.0254 0.3048,-0.055 0.04233,-0.0169 0.06773,-0.0466 0.06773,-0.0889 0,-0.0508 -0.04657,-0.0931 -0.09313,-0.0931 -0.02963,0 -0.09737,0.0423 -0.245533,0.0423 -0.249767,0 -0.4318,-0.11007 -0.4318,-0.4191 v -1.39277 h 0.677333 c 0.0508,0 0.09737,-0.0423 0.09737,-0.0931 0,-0.0508 -0.04657,-0.0974 -0.09737,-0.0974 h -0.677333 v -0.60113 c 0,-0.0593 -0.04657,-0.10583 -0.105834,-0.10583 -0.05927,0 -0.1016,0.0466 -0.1016,0.10583 v 0.60113 h -0.232833 c -0.0508,0 -0.09737,0.0423 -0.09737,0.0931 0,0.0508 0.04657,0.0974 0.09737,0.0974 h 0.232833 v 1.41394 c 0,0.41063 0.270934,0.59266 0.605367,0.59266 z"
         style="font-style:normal;font-variant:normal;font-weight:300;font-stretch:normal;font-size:4.23333px;font-family:'Gotham Rounded';-inkscape-font-specification:'Gotham Rounded Light';text-align:center;text-anchor:middle;stroke-width:0.264583px"
         id="path5067"
         inkscape:connector-curvature="0" /></g><g
       aria-label="Sine"
       style="font-style:normal;font-variant:normal;font-weight:300;font-stretch:normal;font-size:4.93889px;line-height:6.61458px;font-family:'Gotham Rounded';-inkscape-font-specification:'Gotham Rounded Light';font-variant-ligatures:normal;font-variant-caps:normal;font-variant-numeric:normal;font-feature-settings:normal;text-align:center;letter-spacing:0px;word-spacing:0px;writing-mode:lr-tb;text-anchor:middle;display:inline;fill:#ffffff;fill-opacity:1;stroke:none;stroke-width:0.264583px;stroke-linecap:butt;stroke-linejoin:miter;stroke-opacity:1"
       id="text4952"><path
         d="m 12.236549,288.79709 c 0.5715,0 0.982133,-0.3302 0.982133,-0.80856 v -0.008 c 0,-0.4318 -0.287866,-0.67733 -0.973666,-0.81703 -0.702734,-0.14394 -0.8636,-0.33444 -0.8636,-0.6477 v -0.008 c 0,-0.30903 0.287866,-0.5588 0.7239,-0.5588 0.300566,0 0.5588,0.0804 0.817033,0.2794 0.02117,0.0169 0.04657,0.0254 0.07197,0.0254 0.05927,0 0.110066,-0.0508 0.110066,-0.11007 0,-0.0423 -0.0254,-0.072 -0.04657,-0.0889 -0.270934,-0.2032 -0.5461,-0.3048 -0.944034,-0.3048 -0.550333,0 -0.952499,0.33867 -0.952499,0.77894 v 0.008 c 0,0.44874 0.287866,0.69004 0.999066,0.83397 0.6731,0.13547 0.8382,0.3175 0.8382,0.63077 v 0.008 c 0,0.33867 -0.3048,0.58844 -0.7493,0.58844 -0.4064,0 -0.702733,-0.11854 -0.999066,-0.38524 -0.01693,-0.0127 -0.04233,-0.0254 -0.07197,-0.0254 -0.05927,0 -0.110067,0.0508 -0.110067,0.11007 0,0.0381 0.02117,0.0677 0.04233,0.0847 0.334433,0.27516 0.681566,0.41486 1.126066,0.41486 z"
         style="font-style:normal;font-variant:normal;font-weight:300;font-stretch:normal;font-size:4.23333px;font-family:'Gotham Rounded';-inkscape-font-specification:'Gotham Rounded Light';text-align:center;text-anchor:middle;fill:#ffffff;fill-opacity:1;stroke-width:0.264583px"
         id="path5070" /><path
         d="m 13.902895,285.92689 c 0,0.072 0.05503,0.127 0.127,0.127 0.07197,0 0.131233,-0.055 0.131233,-0.127 v -0.072 c 0,-0.072 -0.05927,-0.127 -0.131233,-0.127 -0.07197,0 -0.127,0.055 -0.127,0.127 z m 0.0254,2.73897 c 0,0.0635 0.04657,0.10583 0.105833,0.10583 0.05927,0 0.1016,-0.0423 0.1016,-0.10583 v -1.9812 c 0,-0.0635 -0.04657,-0.10583 -0.105833,-0.10583 -0.05927,0 -0.1016,0.0466 -0.1016,0.10583 z"
         style="font-style:normal;font-variant:normal;font-weight:300;font-stretch:normal;font-size:4.23333px;font-family:'Gotham Rounded';-inkscape-font-specification:'Gotham Rounded Light';text-align:center;text-anchor:middle;fill:#ffffff;fill-opacity:1;stroke-width:0.264583px"
         id="path5072" /><path
         d="m 14.948726,288.66586 c 0,0.0635 0.04657,0.10583 0.105834,0.10583 0.05927,0 0.1016,-0.0423 0.1016,-0.10583 v -1.15993 c 0,-0.44874 0.325966,-0.77047 0.7493,-0.77047 0.436033,0 0.6858,0.2921 0.6858,0.7366 v 1.1938 c 0,0.0635 0.04657,0.10583 0.105833,0.10583 0.05927,0 0.1016,-0.0423 0.1016,-0.10583 v -1.2319 c 0,-0.51647 -0.3175,-0.889 -0.8636,-0.889 -0.3937,0 -0.635,0.19897 -0.778933,0.45297 v -0.31327 c 0,-0.0635 -0.04657,-0.10583 -0.105834,-0.10583 -0.05927,0 -0.1016,0.0466 -0.1016,0.10583 z"
         style="font-style:normal;font-variant:normal;font-weight:300;font-stretch:normal;font-size:4.23333px;font-family:'Gotham Rounded';-inkscape-font-specification:'Gotham Rounded Light';text-align:center;text-anchor:middle;fill:#ffffff;fill-opacity:1;stroke-width:0.264583px"
         id="path5074" /><path
         d="m 17.616917,287.57366 c 0.0381,-0.47837 0.3683,-0.8382 0.795867,-0.8382 0.4953,0 0.745066,0.40217 0.7747,0.8382 z m 1.680633,0.88053 c 0.0254,-0.0254 0.03387,-0.0508 0.03387,-0.072 0,-0.055 -0.04657,-0.0974 -0.1016,-0.0974 -0.02963,0 -0.0508,0.0127 -0.06773,0.0296 -0.173567,0.16934 -0.389467,0.29634 -0.6985,0.29634 -0.423334,0 -0.808567,-0.31327 -0.846667,-0.8509 h 1.693333 c 0.0508,0 0.1016,-0.0466 0.1016,-0.0974 0,-0.61807 -0.385233,-1.1176 -0.9906,-1.1176 -0.5842,0 -1.024466,0.49953 -1.024466,1.12607 v 0.008 c 0,0.6731 0.491066,1.12607 1.058333,1.12607 0.389467,0 0.630767,-0.1397 0.842433,-0.35137 z"
         style="font-style:normal;font-variant:normal;font-weight:300;font-stretch:normal;font-size:4.23333px;font-family:'Gotham Rounded';-inkscape-font-specification:'Gotham Rounded Light';text-align:center;text-anchor:middle;fill:#ffffff;fill-opacity:1;stroke-width:0.264583px"
         id="path5076" /></g><text
       xml:space="preserve"
       transform="matrix(0.3581372,0,0,0.49460837,-5.2301504,162.86217)"
       id="text333"
       style="font-style:normal;font-variant:normal;font-weight:900;font-stretch:normal;font-size:13.3333px;font-family:Arial;-inkscape-font-specification:'Arial, Heavy';font-variant-ligatures:normal;font-variant-caps:normal;font-variant-numeric:normal;font-variant-east-asian:normal;text-align:center;white-space:pre;shape-inside:url(#rect335);display:inline;fill:#ffffff;fill-opacity:1"
       x="42.138565"
       y="0"><tspan
         x="24.744424"
         y="28.116465"
         id="tspan223"><tspan
           style="font-size:10.0584px"
           id="tspan221">Loathe OSC</tspan></tspan></text><g
       id="g121"
       transform="matrix(0.26458333,0,0,0.26458333,10.605503,228.81761)"
       inkscape:label="myKnob">
	<g
   id="g109"
   style="display:inline">
		<path
   opacity="0.4"
   enable-background="new    "
   d="m 18.86291,0.02637 v 1.37952 c -0.2876,-0.01477 -0.57153,-0.04358 -0.86279,-0.04358 -0.29138,0 -0.57544,0.02881 -0.86316,0.0437 V 0.02637 C 7.59935,0.4801 -2e-5,8.34094 -2e-5,18 c 0,9.95068 8.05884,18.01733 18,18.01733 9.94116,0 18,-8.06665 18,-18.01733 0,-9.65906 -7.5996,-17.51978 -17.13707,-17.97363 z M 18.0001,2.36462 c 0.29126,0 0.57544,0.02795 0.86279,0.04358 v 0.89771 c 7.74304,0.44885 13.8888,6.8457 13.8888,14.69409 0,8.13928 -6.60461,14.73755 -14.75171,14.73755 C 9.85288,32.73755 3.24827,26.13928 3.24827,18 3.24827,10.15161 9.39378,3.75488 17.13694,3.30603 V 2.4082 C 17.42443,2.39258 17.70872,2.36462 18.0001,2.36462 Z"
   id="path105" />
		<path
   opacity="0.82"
   fill="#1e1d1e"
   enable-background="new    "
   d="m 18.00006,1.36231 c -9.17993,0 -16.6217,7.44897 -16.6217,16.6377 0,9.18873 7.44177,16.63757 16.6217,16.63757 9.17981,0 16.62158,-7.44885 16.62158,-16.63757 0,-9.18872 -7.44177,-16.6377 -16.62158,-16.6377 z m 0,32.27307 C 9.37311,33.63538 2.3797,26.63526 2.3797,18 c 0,-8.63526 6.99341,-15.63537 15.62036,-15.63537 8.62671,0 15.62024,7.00012 15.62024,15.63538 0,8.63526 -6.99353,15.63537 -15.62024,15.63537 z"
   id="path107"
   style="display:inline" />
	</g>
	<g
   id="g119">
		<path
   fill="#ededed"
   d="m 18.86293,3.30591 h -1.72592 v 14.17598 c 0,0.28613 0.23196,0.51809 0.51809,0.51809 h 0.68975 c 0.28613,0 0.51809,-0.23196 0.51809,-0.51809 z"
   id="path111" />
		<rect
   x="17.136999"
   y="-0.01733"
   opacity="0.71"
   fill="#ffffff"
   enable-background="new    "
   width="1.72592"
   height="1.37964"
   id="rect113" />
		<rect
   x="17.136999"
   y="1.3623101"
   fill="#d9d9d9"
   width="1.72592"
   height="1.00231"
   id="rect115" />
		<rect
   x="17.136999"
   y="2.36462"
   opacity="0.71"
   fill="#ffffff"
   enable-background="new    "
   width="1.72592"
   height="0.89788997"
   id="rect117" />
	</g>
</g><text
       xml:space="preserve"
       transform="matrix(0.26458333,0,0,0.26458333,0.13363476,162.35279)"
       id="text263"
       style="font-weight:900;font-size:16px;font-family:Arial;-inkscape-font-specification:'Arial, Heavy';text-align:center;white-space:pre;shape-inside:url(#rect265);fill:#ffffff;stroke:#9c0000"><tspan
         x="31.307617"
         y="215.36479"
         id="tspan225">PITCH</tspan></text></g><g
     inkscape:groupmode="layer"
     id="layer2"
     inkscape:label="components"
     style="display:none"><circle
       style="display:inline;opacity:1;vector-effect:none;fill:#ff0000;fill-opacity:1;fill-rule:evenodd;stroke:none;stroke-width:1;stroke-linecap:butt;stroke-linejoin:miter;stroke-miterlimit:4;stroke-dasharray:none;stroke-dashoffset:0;stroke-opacity:1;paint-order:normal"
       id="path4954"
       cx="15.373635"
       cy="39.916061"
       r="4"
       inkscape:label="pitch" /><circle
       r="4"
       cy="77.477875"
       cx="15.24"
       id="circle4956"
       style="display:inline;opacity:0.446903;vector-effect:none;fill:#ffb600;fill-opacity:1;fill-rule:evenodd;stroke:none;stroke-width:1;stroke-linecap:butt;stroke-linejoin:miter;stroke-miterlimit:4;stroke-dasharray:none;stroke-dashoffset:0;stroke-opacity:1;paint-order:normal"
       inkscape:label="pitch" /><circle
       style="display:inline;opacity:1;vector-effect:none;fill:#0000ff;fill-opacity:1;fill-rule:evenodd;stroke:none;stroke-width:1;stroke-linecap:butt;stroke-linejoin:miter;stroke-miterlimit:4;stroke-dasharray:none;stroke-dashoffset:0;stroke-opacity:1;paint-order:normal"
       id="circle4958"
       cx="15.24"
       cy="108.71259"
       r="4"
       inkscape:label="sine" /><circle
       inkscape:label="blink"
       r="4"
       cy="25.80987"
       cx="15.24"
       id="circle66"
       style="display:inline;opacity:0.150443;vector-effect:none;fill:#00ff4d;fill-opacity:1;fill-rule:evenodd;stroke:none;stroke-width:1;stroke-linecap:butt;stroke-linejoin:miter;stroke-miterlimit:4;stroke-dasharray:none;stroke-dashoffset:0;stroke-opacity:1;paint-order:normal" /><circle
       style="display:inline;opacity:1;vector-effect:none;fill:#ff0000;fill-opacity:1;fill-rule:evenodd;stroke:none;stroke-width:1;stroke-linecap:butt;stroke-linejoin:miter;stroke-miterlimit:4;stroke-dasharray:none;stroke-dashoffset:0;stroke-opacity:1;paint-order:normal"
       id="circle155"
       cx="15.373634"
       cy="65.173035"
       r="4"
       inkscape:label="pitch" /></g></svg>
